<?xml version="1.0" encoding="utf-8"?>
<!-- Generator: Adobe Illustrator 26.0.3, SVG Export Plug-In . SVG Version: 6.00 Build 0)  -->
<svg version="1.1" xmlns="http://www.w3.org/2000/svg" xmlns:xlink="http://www.w3.org/1999/xlink" x="0px" y="0px"
	 viewBox="0 0 264.67 232" style="enable-background:new 0 0 264.67 232;" xml:space="preserve">
<style type="text/css">
	.st0{fill:none;stroke:#000000;stroke-miterlimit:10;}
	.st1{fill:#FFFFFF;stroke:#000000;stroke-miterlimit:10;}
	.st2{display:none;fill:none;stroke:#454EA1;stroke-miterlimit:10;}
	.st3{fill:none;stroke:#000000;stroke-width:2;stroke-miterlimit:10;}
	.st4{stroke:#000000;stroke-miterlimit:10;}
</style>
<g id="Body_00000121239041447310893200000013756560422379223733_">
	<path id="Body_00000172435336790339691460000000568748124861073830_" class="st0" d="M67.56,47.7
		c4.91-0.67,25.63-10.73,32.78-10.06c20.98,1.95,29.18-1.63,42.67,7.01c3.06,1.96,18.01,11.91,24.5,24.85
		c17.13,34.14-6.85,97.59-46.83,100.5c-52.72,3.84-45.09-12.53-69.26-20.94c-30.55-10.64-44.81,18.83-36.36,29.87
		s15.58,9.09,32.47,16.23s-27.27-22.73-12.99-31.17c14.29-8.44,21.64,3.95,28.57,9.09s21.66,21.43,68.83,17.53
		c47.17-3.9,63.43-36.87,65.58-40.91s5.84-42.52,5.84-51.95s-3.9-74.76-82.69-72.09C81.19,27,70.32,28.04,69.19,30.02"/>
	<path id="Tail_Spike" class="st1" d="M29,197c0,0,17.59-0.49,22.13,19.01s0-31.82,0-31.82s-4.67,7.03-8.46,8.59
		C38.87,194.34,29,197,29,197z"/>
</g>
<g id="Circles">
	<circle id="Big_Circle" class="st1" cx="108.76" cy="103.62" r="69.46"/>
	<circle id="Small_Circle" class="st1" cx="108.76" cy="103.62" r="63.43"/>
</g>
<g id="Wing">
	<path class="st0" d="M202.87,55.33c0,0,45.13,45.89,19.93,126.33c14.19-20.89,13.7-35,20.53-24.78
		c6.33-24.72,9.83-25.06,15.56-14.44C265.17,76.5,202.87,55.33,202.87,55.33z"/>
	<path class="st0" d="M223.76,180.23c0,0,22.74-52.9,9.57-87.79c14.44,17.11,10,64.44,10,64.44s12-42.22-3.59-67.18
		c10.02,5.22,19.28,51.18,19.28,51.18"/>
	<path class="st2" d="M229.69,126.26c-21.37-37.22-60.06-59.93-60.06-59.93"/>
	<path class="st0" d="M227.27,105.01L215.31,121c-3.23-16-11.96-20-11.96-20"/>
	<path class="st0" d="M223.76,92.46l-7.59,14.4c-0.86-13.52-15.76-29.21-15.76-29.21"/>
</g>
<g id="Spikes">
	<path class="st1" d="M195.69,127.78c-0.64-5.3-3.24-16,6.98-18.22c6.44,15.11,18.89,20.22,15.56,31.33
		C203.78,125.22,196.22,132.22,195.69,127.78z"/>
	<path class="st1" d="M184.83,158.88c1.64-5.08,3.77-15.88,13.98-13.61c-0.49,16.42,8.66,26.28,0.98,34.97
		C193.24,159.95,183.45,163.14,184.83,158.88z"/>
	<path class="st1" d="M161.06,181.7c3.17-4.3,8.6-13.88,17.57-8.49c-5.66,15.42-0.1,27.67-10.14,33.48
		C168.71,185.38,158.41,185.31,161.06,181.7z"/>
	<path class="st1" d="M130.35,185.92c4.89-2.13,14.4-7.69,19.46,1.46c-12.63,10.51-13.96,23.9-25.56,23.89
		C135.12,192.94,126.25,187.7,130.35,185.92z"/>
	<path class="st1" d="M96.01,184.65c4.24-0.4,12.81-2.24,14.37,5.95c-12.17,4.81-16.51,14.62-25.29,11.73
		C97.88,191.14,92.46,184.98,96.01,184.65z"/>
	<path class="st1" d="M73.14,177.73c3.04,0.74,9.45,1.5,8.58,7.57c-9.62,0.44-14.98,6.23-20.4,2.12
		C72.89,182.7,70.59,177.12,73.14,177.73z"/>
	<path class="st1" d="M55.89,164.95c2.73,1.06,8.58,2.58,7.11,7.98c-8.95-0.85-14.54,3.71-19.1-0.72
		C55.11,169.42,53.6,164.06,55.89,164.95z"/>
	<path class="st1" d="M164.55,33.36c-9.88,4.2-9.88-3.78-9.88-3.78c8.94-13.13,41.51-3.2,41.76-2.17
		C196.67,28.45,168.47,22.06,164.55,33.36z"/>
	<path class="st1" d="M130.18,25.46c-6.2,5.88-8.42-0.04-8.42-0.04c3.01-12.25,30.06-13.97,30.53-13.27
		C152.77,12.85,129.96,15.98,130.18,25.46z"/>
	<path class="st1" d="M98.37,26.28c-4.11,3.9-5.59-0.03-5.59-0.03c2-8.13,19.94-9.27,20.26-8.8S98.23,19.99,98.37,26.28z"/>
	<path class="st1" d="M192.77,59.23c-10.56,1.84-8.77-5.89-8.77-5.89c11.65-10.71,41.11,6.25,41.12,7.32S199.13,49.16,192.77,59.23z
		"/>
</g>
<g id="Head">
	<path class="st0" d="M70,26.83l-13.33,6.68c0,0-8.88-2.71-12.77,0c-12.34,10.71-19.23,4.71-20.56,8.16
		c-1.33,3.44-2.99,4.91-1.33,5.3c1.65,0.39,9.56,4.72,12,4.72s24.2-0.95,27.85-3.49C65.51,45.67,70,26.83,70,26.83z"/>
	<path class="st0" d="M57.08,56.92c-6,3.11-12,1.75-12,1.75s-6.86-2.07-10.83-2.07c-3.98,0-11.36-1.33-11.36-1.33
		s-5.33-3.65-5.33-5.46c0-1.81,4.44-2.84,4.44-2.84"/>
	<path class="st1" d="M59.18,32.31c-3.55,4.42-5.54,0.73-5.54,0.73c0.88-8.32,18.5-11.89,18.87-11.48
		C72.89,21.98,58.18,26.09,59.18,32.31z"/>
	<path class="st1" d="M67.78,34.58c-2,1.64-4.78,10.3,2.22,9.86c7-0.44,11.05-4.84,11.8,2.72c1.22,12.32-16.02,8.17-16.02,8.17
		s20.44,15.78,22.44-8.17C88.22,30.94,69.78,32.95,67.78,34.58z"/>
	<path class="st3" d="M21.46,46.7c1.65,0.39,10.1,4.99,12.54,4.99s29.08,0.62,31.51-8.6"/>
	<path class="st0" d="M35.78,43.67c-3.33,3.31,24.44-2.78,24.44-2.78s-3.56-4.22-9.56-2.49C44.67,40.14,39.11,40.36,35.78,43.67z"/>
	<circle class="st4" cx="43.22" cy="42.23" r="1.17"/>
	<path class="st1" d="M27.83,40.67c-0.72,3.25-3.68-0.1-3.68-0.1c-1.85-7.13,1.52-7.13,1.85-6.69S25.54,35.05,27.83,40.67z"/>
	<path class="st1" d="M35.5,52.52c-0.72,3.25-3.68-0.1-3.68-0.1c-1.85-7.13,1.52-7.13,1.85-6.69C33.99,46.16,33.2,46.9,35.5,52.52z"
		/>
</g>
<g id="Claws">
	<path class="st0" d="M75.93,164.85c0,0,3.26,11.45,8.34,14.06c5.08,2.61,7.59-1.68,7.59-1.68s2.43,4.67,6.58,5.64
		c4.14,0.97,18.86-1.41,22.33-4s15.3-11.1,10.02-9.35c-21.32,7.05-42.21,0.59-42.21,0.59L75.93,164.85z"/>
	<path class="st1" d="M113.56,173.35c5.5,5.69-2.43,6.96-2.43,6.96c-14.24-3.67-8.74-26.2-7.74-26.53
		C104.39,153.46,101.81,172.62,113.56,173.35z"/>
	<path class="st1" d="M102.79,175.82c5.5,5.69-2.43,6.96-2.43,6.96c-14.24-3.67-8.74-26.2-7.74-26.53
		C93.61,155.93,91.04,175.09,102.79,175.82z"/>
	<path class="st1" d="M90.81,172.4c4.48,6.52-3.54,6.46-3.54,6.46c-13.44-5.97-4.3-27.28-3.26-27.44
		C85.04,151.27,79.34,169.74,90.81,172.4z"/>
	<path class="st0" d="M123.73,34.58c0,0,10.49-5.7,16.05-4.36c5.56,1.33,4.67,6.22,4.67,6.22s4.89-1.96,8.67,0
		c3.78,1.96,13,15.12,14.44,18.82c1.44,3.7,2.4,14.56-0.85,10.04c-13.2-18.34-23.3-21.9-23.3-21.9L123.73,34.58z"/>
	<path class="st1" d="M127.95,38.73c3.91-4.45-2.06-5.12-2.06-5.12c-10.52,3.25-5.61,19.91-4.85,20.12
		C121.79,53.93,119.18,39.69,127.95,38.73z"/>
	<path class="st1" d="M139.75,42.76c3.91-4.45-2.06-5.12-2.06-5.12c-10.52,3.25-5.61,19.91-4.85,20.12
		C133.59,57.97,130.99,43.73,139.75,42.76z"/>
	<path class="st1" d="M150.97,48.79c3.91-4.45-2.06-5.12-2.06-5.12c-10.52,3.25-5.61,19.91-4.85,20.12
		C144.82,63.99,142.21,49.75,150.97,48.79z"/>
</g>
<g id="Text">
	<g>
		<path d="M99.09,122.5l1.54,2.78c-3.92,2.46-7.69,4.28-11.29,5.45s-7.33,1.76-11.18,1.76c-4.9,0-9.34-1.12-13.34-3.35
			c-4-2.23-7.02-5.39-9.08-9.48c-2.06-4.09-3.09-8.62-3.09-13.6c0-8.13,2.65-14.78,7.95-19.95c5.3-5.17,12.31-7.76,21.03-7.76
			c5.36,0,11.33,1.1,17.91,3.29c-0.05,2.15-0.07,3.76-0.07,4.83c0,3.12,0.18,6.41,0.55,9.85h-3.08c-0.9-4.27-1.87-7.21-2.89-8.82
			c-1.02-1.61-2.68-2.9-4.97-3.86c-2.29-0.96-5.12-1.45-8.48-1.45c-7.07,0-12.4,2.51-15.98,7.54c-2.78,3.93-4.17,8.86-4.17,14.79
			c0,7.08,1.96,12.66,5.87,16.75c3.91,4.09,9.04,6.13,15.38,6.13c2.73,0,5.39-0.35,7.97-1.06C92.24,125.63,95.38,124.35,99.09,122.5
			z"/>
		<path d="M146.46,102.88l-0.04-2.6l-0.04-7.87l-0.07-6.85c-0.02-1.03-0.17-1.66-0.44-1.9c-0.39-0.41-1.34-0.73-2.86-0.95l-4.94-1.1
			v-2.16c5.62,0.27,9.68,0.4,12.19,0.4c2.75,0,6.56-0.13,11.42-0.4v2.16c-4.01,0.83-6.27,1.35-6.78,1.57
			c-0.51,0.22-0.85,0.46-1.02,0.73c-0.27,0.44-0.41,1.78-0.44,4.03c-0.05,3.66-0.07,9.93-0.07,18.82l0.15,17.35v1.02
			c0,1.15,0.21,1.88,0.62,2.2c0.69,0.51,3.22,1.15,7.61,1.9v2.16c-6.71-0.27-10.97-0.4-12.78-0.4c-3.01,0-6.67,0.13-10.98,0.4v-2.16
			l6.73-1.5c0.42-0.17,0.74-0.42,0.96-0.73c0.34-0.51,0.53-1.48,0.55-2.89l0.18-17.21c-6.43-0.12-11.35-0.18-14.77-0.18
			c-3.69,0-7.59,0.06-11.69,0.18l0.11,17.68c0,1.27,0.12,2.07,0.36,2.42c0.24,0.34,0.87,0.66,1.9,0.95c0.24,0.07,2.24,0.5,5.98,1.28
			v2.16c-5.95-0.27-10.15-0.4-12.61-0.4c-3.05,0-6.74,0.13-11.07,0.4v-2.16c2.64-0.59,4.6-1,5.89-1.24c0.98-0.17,1.6-0.41,1.87-0.73
			c0.37-0.41,0.55-1.28,0.55-2.6c0.07-4.66,0.11-11.32,0.11-19.99l-0.18-18.12v-1.17c0-0.85-0.14-1.45-0.42-1.78
			c-0.28-0.33-0.87-0.6-1.77-0.82l-6.05-1.17v-2.16c4.94,0.27,9.06,0.4,12.35,0.4c3.47,0,7.27-0.13,11.4-0.4v2.16l-6.18,1.21
			c-0.78,0.2-1.32,0.47-1.62,0.82c-0.29,0.35-0.44,0.98-0.44,1.89l-0.18,17.35c3.77,0.07,7.75,0.11,11.93,0.11
			C137.29,102.99,142.15,102.95,146.46,102.88z"/>
	</g>
</g>
</svg>
