<?xml version="1.0" encoding="utf-8"?>
<!-- Generator: Adobe Illustrator 26.4.1, SVG Export Plug-In . SVG Version: 6.00 Build 0)  -->
<svg version="1.1" id="Layer_1" xmlns="http://www.w3.org/2000/svg" xmlns:xlink="http://www.w3.org/1999/xlink" x="0px" y="0px"
	 viewBox="0 0 448 512" style="enable-background:new 0 0 448 512;" xml:space="preserve">
<style type="text/css">
	.st0{fill:#6D6D6D;}
</style>
<path class="st0" d="M224,224c-17.7,0-32,14.3-32,32s14.3,32,32,32c17.7,0,32-14.3,32-32C256,238.3,241.7,224,224,224z M438.2,128
	c-10.9-19.5-40.5-50.8-116.3-41.9C300.4,34.9,267.6,0,224,0s-76.4,34.9-97.9,86.1C50.3,77.4,20.7,108.5,9.8,128
	c-16.4,29.4-15,73.1,25.1,128C-5.2,310.9-6.5,354.6,9.8,384c29.1,52.4,101.6,43.6,116.3,41.9c21.5,51.2,54.3,86.1,97.9,86.1
	s76.4-34.9,97.9-86.1c14.6,1.8,87.1,10.5,116.3-41.9c16.4-29.4,15-73.1-25.1-128C453.2,201.1,454.5,157.4,438.2,128L438.2,128z
	 M63.3,352c-4-7.2-0.1-24.8,15-48.2c6.9,6.5,14.1,12.9,21.9,19.1c1.6,13.8,4,27.1,6.8,40.1C82.3,363.9,67.1,358.6,63.3,352z
	 M100.2,189.1c-7.8,6.2-15,12.6-21.9,19.1c-15.1-23.5-19-41-15-48.2c3.4-6.1,16.4-11.5,37.9-11.5c1.8,0,3.9,0.4,5.8,0.4
	C104.1,162.2,101.8,175.6,100.2,189.1z M224,64c9.5,0,22.3,13.5,33.9,37.2c-11.3,3.8-22.5,8-33.9,12.9c-11.4-4.9-22.6-9.1-33.9-12.9
	C201.7,77.5,214.5,64,224,64z M224,448c-9.5,0-22.3-13.5-33.9-37.2c11.3-3.8,22.5-8,33.9-12.9c11.4,4.9,22.6,9.1,33.9,12.9
	C246.3,434.5,233.5,448,224,448z M224,336c-44.2,0-80-35.8-80-80s35.8-80,80-80s80,35.8,80,80C304,300.2,268.2,336,224,336z
	 M384.7,352c-3.6,6.6-19,11.9-43.6,11c2.8-13,5.1-26.4,6.8-40.1c7.8-6.2,15-12.6,21.9-19.1C384.8,327.2,388.7,344.8,384.7,352z
	 M369.7,208.2c-6.9-6.5-14.1-12.9-21.9-19.1c-1.6-13.5-3.9-26.9-6.8-40.2c1.9,0,4-0.4,5.8-0.4c21.5,0,34.5,5.4,37.9,11.5
	C388.7,167.2,384.8,184.8,369.7,208.2z"/>
</svg>
